# xmcd
#
# Track frame offsets:
#	150
#	24782
#	47103
#	70195
#	92563
#	112273
#	137637
#	159217
#	188106
#	217372
#	243794
#	265266
#	281835
#	306902
#	324799
#
# Disc length: 4679 seconds
#
# Revision: 0
# Processed by: cddbd v1.5.2PL0 Copyright (c) Steve Scherf et al.
# Submitted via: EZCDAudioConverter 7.1.5.1
#
DISCID=d312450f
DTITLE=Avery Sunshine - Twenty Sixty Four
DYEAR=2018
DGENRE=R&B
TTITLE0=Come Do Nothing
TTITLE1=I Just Don't Know
TTITLE2=Kiss And Make It Better
TTITLE3=Jump
TTITLE4=Used Car
TTITLE5=Heaven Is Right Here (ft Mr Talkbox)
TTITLE6=The Ice Cream Song
TTITLE7=Everything I've Got
TTITLE8=Twenty Sixty Four
TTITLE9=Prayer Room
TTITLE10=Sweet Hour Of Prayer (Postlude)
TTITLE11=Forever's Not Long Enough (Bonus Track)
TTITLE12=Come Do Nothing (again)(Bonus Track)
TTITLE13=No Time For Mess (Bonus Track)
TTITLE14=You've Got A Friend (Bonus Track)
EXTD=
EXTT0=
EXTT1=
EXTT2=
EXTT3=
EXTT4=
EXTT5=
EXTT6=
EXTT7=
EXTT8=
EXTT9=
EXTT10=
EXTT11=
EXTT12=
EXTT13=
EXTT14=
PLAYORDER=
